<svg xmlns="http://www.w3.org/2000/svg" width="900" height="520" viewBox="0 0 900 520">
  <defs>
    <linearGradient id="paper" x1="0" y1="0" x2="1" y2="1">
      <stop offset="0%" stop-color="#fff6ed"/>
      <stop offset="100%" stop-color="#f9e7dc"/>
    </linearGradient>
    <linearGradient id="trail" x1="0" y1="0" x2="1" y2="0">
      <stop offset="0%" stop-color="#ff8a3d"/>
      <stop offset="100%" stop-color="#ff5d73"/>
    </linearGradient>
  </defs>
  <rect x="20" y="20" width="860" height="480" rx="28" fill="url(#paper)" stroke="#e7dcd3" stroke-width="3"/>
  <path d="M120 120 C 260 60, 380 180, 520 120 S 760 140, 820 90" fill="none" stroke="url(#trail)" stroke-width="6" stroke-linecap="round"/>
  <circle cx="140" cy="120" r="10" fill="#ff8a3d"/>
  <circle cx="520" cy="120" r="10" fill="#ff5d73"/>
  <circle cx="820" cy="90" r="10" fill="#ff8a3d"/>
  <path d="M140 320 C 260 360, 360 280, 480 320 S 700 360, 780 300" fill="none" stroke="#f3b4a4" stroke-width="5" stroke-linecap="round" stroke-dasharray="10 10"/>
  <rect x="90" y="380" width="140" height="70" rx="12" fill="#fff1e8" stroke="#e7dcd3" stroke-width="2"/>
  <rect x="260" y="380" width="140" height="70" rx="12" fill="#fff1e8" stroke="#e7dcd3" stroke-width="2"/>
  <rect x="430" y="380" width="140" height="70" rx="12" fill="#fff1e8" stroke="#e7dcd3" stroke-width="2"/>
  <rect x="600" y="380" width="180" height="70" rx="12" fill="#fff1e8" stroke="#e7dcd3" stroke-width="2"/>
  <text x="70" y="80" font-family="Playfair Display, serif" font-size="32" fill="#5a463c">Adventure Map</text>
  <text x="70" y="110" font-family="Noto Sans TC, sans-serif" font-size="18" fill="#7a6f68">Adventure Journal Map</text>
</svg>
